<?xml version="1.0" encoding="UTF-8"?><svg xmlns="http://www.w3.org/2000/svg" viewBox="0 0 999.56 999.56"><defs><style>.cls-1{fill:#7c5341;}.cls-2{fill:#7ec8e3;}.cls-3{fill:#fffefa;}.cls-4{fill:#caa177;mix-blend-mode:soft-light;opacity:.8;}.cls-5{fill:#9e6f3c;}.cls-6{isolation:isolate;}.cls-7{fill:#2e2e2e;opacity:.5;}.cls-8{fill:#eee;}.cls-9{fill:#bd8a55;}</style></defs><g class="cls-6"><g id="favicon"><circle class="cls-2" cx="499.78" cy="499.78" r="499.78"/><g id="ice"><path class="cls-9" d="M511.16,904.48l139.9-368.38c2.91-7.65-2.76-15.84-10.94-15.83l-281.1.5c-8.19.01-13.82,8.22-10.88,15.87l141.21,367.88c3.84,10.01,18.02,9.99,21.82-.04Z"/><path class="cls-9" d="M630.06,502.88l-130.21.23-130.21.23c-21.15.04-38.27,15.73-38.23,35.04l16.09,50.34c7.53,20.97,17.21,34.95,38.36,34.91l114.21-.2,114.21-.2c21.15-.04,30.78-14.04,38.23-35.04l15.91-50.39c-.03-19.32-17.21-34.95-38.36-34.91Z"/><path class="cls-4" d="M652.49,580.1c-7.45,21-17.08,35.01-38.23,35.04l-114.21.2-114.21.2c-21.15.04-30.83-13.94-38.36-34.91l-15.49-48.45c-.39,2.01-.59,4.08-.59,6.2l16.09,50.34c7.53,20.97,17.21,34.95,38.36,34.91l114.21-.2,114.21-.2c21.15-.04,30.78-14.04,38.23-35.04l15.91-50.39c0-2.11-.21-4.19-.61-6.2l-15.31,48.51Z"/><path class="cls-1" d="M601.41,665.84l-12.6,15.8-19.69-15.7,12.6-15.8c1.07-1.34.85-3.3-.49-4.37-1.34-1.07-3.3-.85-4.37.49l-12.6,15.8-8.02-6.4c-1.34-1.07-3.3-.85-4.37.49-1.07,1.34-.85,3.3.49,4.37l8.02,6.4-17.25,21.64-17.26-13.76c-1.34-1.07-3.3-.85-4.37.49-1.07,1.34-.85,3.3.49,4.37l17.26,13.76-17.25,21.64-8.02-6.4c-1.34-1.07-3.3-.85-4.37.49-1.07,1.34-.85,3.3.49,4.37l8.02,6.4-11.05,13.86c-1.07,1.34-.85,3.3.49,4.37,1.34,1.07,3.3.85,4.37-.49l11.05-13.86,19.69,15.7-11.05,13.86c-1.07,1.34-.85,3.3.49,4.37,1.34,1.07,3.3.85,4.37-.49l11.05-13.86,14.34,11.43c1.34,1.07,3.3.85,4.37-.49,1.07-1.34.85-3.3-.49-4.37l-14.34-11.43,17.25-21.64,5.11,4.07c1.34,1.07,3.3.85,4.37-.49,1.07-1.34.85-3.3-.49-4.37l-5.11-4.07,17.25-21.64,2.05,1.63,2.32-6.1-.49-.39,1.22-1.53,7.11-18.71c-.22.16-.41.34-.59.56ZM546.57,734.64l-19.69-15.7,17.25-21.64,19.69,15.7-17.25,21.64ZM567.69,708.14l-19.69-15.7,17.25-21.64,19.69,15.7-17.25,21.64Z"/><path class="cls-5" d="M368.58,594.12c-2.05,0-4.19-2.55-4.19-7.38v-40.19h5.05c1.76,0,4,2.28,4,6.14v41.44h-4.86Z"/><path class="cls-5" d="M400.47,568.61c-.81-1.24-3.29-2.62-5.82-2.62-4.43,0-6.91,3.24-6.91,8.55,0,6.48,2.48,9.51,6.48,9.51,2.81,0,4.77-.83,6.34-2.14h.1v3.93c0,5.03-3.58,9.1-8.34,9.1-7.96,0-13.63-7.79-13.63-19.65,0-10.82,5.2-20.13,14.44-20.13,4.15,0,7.58,3.93,7.58,8.82v4.62h-.24Z"/><path class="cls-5" d="M418.06,555.17c7.15,0,13.59,7.86,13.59,19.58,0,12.41-5.2,20.41-14.25,20.41-7.48,0-13.59-8-13.59-19.17,0-12.55,6.01-20.82,14.25-20.82ZM417.49,565.51c-2.48,0-4.72,3.79-4.72,8.96,0,7.31,2,10.48,5.2,10.48,2.86,0,4.72-3.79,4.72-9.03,0-6.83-2.05-10.41-5.2-10.41Z"/><path class="cls-5" d="M458.62,594.12c-4,0-5.24-1.93-5.24-7.72v-13.31c0-5.1-1.19-7.38-4.24-7.38-2.62,0-4.05,2.55-4.05,7.17v21.23h-3.05c-3.86,0-6.01-2.21-6.01-7.72v-13.31c0-10.89,5.01-17.99,13.35-17.99,9.3,0,13.06,7.1,13.06,18.34v20.68h-3.81Z"/><path class="cls-5" d="M479.69,579.85h-3.91c.52,3.79,2.67,5.58,6.44,5.58,4.19,0,6.82-.97,8.29-2.41h.33v3.03c0,4.83-2.72,9.17-10.2,9.17-9.06,0-13.82-8.82-13.82-19.3,0-11.51,5.39-20.89,13.49-20.89,6.86,0,12.2,5.58,12.2,15.24,0,7.58-3.96,9.58-12.82,9.58ZM480.31,564.82c-3.19,0-4.53,2.96-4.77,6.62h3.53c4.29,0,5.05-.97,5.05-2.62,0-1.93-1.19-4-3.81-4Z"/><path class="cls-5" d="M517.92,568.61c-.81-1.24-3.29-2.62-5.82-2.62-4.43,0-6.91,3.24-6.91,8.55,0,6.48,2.48,9.51,6.48,9.51,2.81,0,4.77-.83,6.34-2.14h.1v3.93c0,5.03-3.58,9.1-8.34,9.1-7.96,0-13.63-7.79-13.63-19.65,0-10.82,5.2-20.13,14.44-20.13,4.15,0,7.58,3.93,7.58,8.82v4.62h-.24Z"/><path class="cls-5" d="M537.94,565.99c-1.14-.62-2-.76-3.19-.76-2.19,0-3.91,1.59-3.91,6.2v22.68h-2.48c-3.91,0-6.29-2.62-6.29-8.96v-16.48c0-7.65,3.57-13.72,9.53-13.72,4.53,0,6.63,2.69,6.63,6.21v4.83h-.29Z"/><path class="cls-5" d="M553,579.85h-3.91c.52,3.79,2.67,5.58,6.44,5.58,4.19,0,6.82-.97,8.29-2.41h.33v3.03c0,4.83-2.72,9.17-10.2,9.17-9.06,0-13.82-8.82-13.82-19.3,0-11.51,5.39-20.89,13.49-20.89,6.86,0,12.2,5.58,12.2,15.24,0,7.58-3.96,9.58-12.82,9.58ZM553.62,564.82c-3.19,0-4.53,2.96-4.77,6.62h3.53c4.29,0,5.05-.97,5.05-2.62,0-1.93-1.19-4-3.81-4Z"/><path class="cls-5" d="M580.64,595.16c-5.05,0-11.2-3.45-11.2-12.07s4.19-12.69,13.73-12.69h1.29v-1.59c0-3.1-1.67-3.86-5.24-3.86-4.91,0-6.72,1.65-8.58,4.14h-.24v-4.62c0-4.69,3.38-9.38,10.87-9.38s11.96,5.31,11.96,16.48v5.86c0,13.79-3.05,17.72-12.58,17.72ZM584.65,578.54h-1.81c-3.43,0-4.81,1.24-4.81,3.79,0,2.41,1.05,3.65,3.57,3.65,1.62,0,3.05-1.17,3.05-4.62v-2.83Z"/><path class="cls-5" d="M635.84,594.12c-4.81,0-5.91-2.96-5.91-7.65v-14c0-4.9-1.14-6.69-3.77-6.69s-3.38,2.69-3.38,6.48v21.86h-3.15c-3.67,0-5.62-1.72-5.62-7.65v-14.34c0-4.48-1.19-6.34-3.57-6.34-2.53,0-3.53,1.86-3.53,6.55v21.79h-3.15c-4.05,0-5.91-2.83-5.91-7.65v-13.31c0-11.03,4.39-18.06,12.73-18.06,4.1,0,7.2,3.65,8.06,6.76,1.24-2.9,4.43-6.76,8.2-6.76,7.63,0,12.16,6.55,12.16,18.41v20.61h-3.15Z"/><path id="icecream" class="cls-3" d="M630.01,390.65s-3.02,0-8.41.01c9.69-7.65,18.22-24.46,18.17-51.91-.09-50.4-35.64-73.35-50.44-73.33,0,0-8.75.02-22.51.04,8.83-5.76,18.73-20.26,9.04-48.47-13.85-40.26-108.88-115.51-108.88-115.51-8.12.01,5.4,43.53-24.07,88.15-21.36,32.33-39.9,53.41-27.25,75.52.11.2.24.39.39.58-11.7.02-18.97.03-18.97.03-14.8.03-50.27,23.1-50.18,73.51.05,27.66,8.77,44.49,18.58,52.02-21.59,2.35-65.18,27.15-65.09,78.28.07,37.71,19.38,56.55,36.47,59.94,0,0,81.35-.14,162.71-.29,19.79-.04,39.57-.07,58.19-.1-.23,1.67-.36,3.38-.35,5.13.03,16.05,10.35,29.05,23.06,29.03,7.08-.01,13.4-4.06,17.61-10.42,2.53.69,5.16,1.05,7.87,1.05,14.32-.03,26.56-10.33,31.63-24.93,15.42-.03,24.71-.04,24.71-.04,17.08-3.45,36.32-22.36,36.26-60.07-.1-53.78-48.41-78.26-68.54-78.22Z"/><path class="cls-8" d="M398.72,276.19c-12.42.02-19.11,3.34-19.1,10.57,0,5.07,2.07,7.3,3.51,8.06,3.02,1.6,6.61,1.59,14.42,1.58,7.81-.01,13.42-.18,16.83-1.63,1.08-.46,3.49-3,3.48-8.08-.01-7.23-5.45-10.53-19.14-10.5Z"/><path class="cls-7" d="M698.16,459.68c-3.13,30.82-20.66,48-35.08,54.33-5.08,2.24-13.25,3.98-23.32,5.34-.04.32-.08.64-.12.96-1.58,1.75-17.09,25.73-33.62,25.76-2.71,0-5.34-.36-7.87-1.05-4.21,6.36-10.53,10.41-17.61,10.42-11.7.02-20.11-16.73-21.59-31.01-.15.21-.28.45-.4.72.11-.44.24-.88.36-1.31-26.75.38-50.3.08-59.35.09-28.91.05-156.07-2.21-169.14-9.34-13.82-7.54-26.13-23.41-29.36-54.22-.34,3.06-.51,6.23-.5,9.5.07,37.71,19.38,56.55,36.47,59.94,0,0,81.35-.14,162.71-.29,19.68-.03,39.37-.07,57.9-.1-.23,2.23-.22,4.44-.22,5.26.03,16.05,10.35,29.05,23.06,29.03,7.08-.01,13.4-4.06,17.61-10.42,2.53.69,5.16,1.06,7.87,1.05,15.79-.05,26.71-10.29,31.64-25.06,15.51-.03,24.85-.04,24.85-.04,17.08-3.45,36.32-22.36,36.26-60.07,0-3.28-.19-6.44-.54-9.5Z"/><path class="cls-7" d="M558.8,260.82c-33.33,18.41-119.06,10.68-132.75,2.1-16.81-10.54-12.65-19.51-13.32-21.73-2.12,8.16-1.57,15.9,2.93,23.77,8.03,14.02,109.13,13.54,145.69,2.9,7.8-2.27,22-13.2,17.7-38.74-2.7,13.55-7.83,24.84-20.26,31.7Z"/><path class="cls-7" d="M613.75,383.84c-23.29,17.14-100.08,14.79-120.29,14.83-22.71.04-109.44-4.78-122.52-16.26-8.88-7.8-21.57-23.54-23.73-53.14-.19,2.54-.29,5.14-.29,7.84.06,35.34,6.21,49.61,26.85,56.18,15.54,4.95,93.27,9.1,119.7,9.43,22.07.27,97.04-.44,119.67-9.85,21.76-9.05,26.71-20.94,26.65-56.27,0-2.69-.12-5.3-.31-7.83-2.05,29.6-9.14,42.89-25.71,55.09Z"/></g></g></g></svg>