<?xml version="1.0" encoding="UTF-8"?><svg xmlns="http://www.w3.org/2000/svg" viewBox="0 0 999.56 999.56"><defs><style>.cls-1{fill:#7c5341;}.cls-2{fill:#7ec8e3;}.cls-3{fill:#fffefa;}.cls-4{fill:#caa177;mix-blend-mode:soft-light;opacity:.8;}.cls-5{fill:#9e6f3c;}.cls-6{isolation:isolate;}.cls-7{fill:#2e2e2e;opacity:.5;}.cls-8{fill:#eee;}.cls-9{fill:#bd8a55;}</style></defs><g class="cls-6"><g id="favicon"><circle class="cls-2" cx="499.78" cy="499.78" r="499.78"/><g id="ice"><path class="cls-9" d="M507.97,668.1l98.72-259.93c2.05-5.4-1.94-11.18-7.72-11.17l-198.35.35c-5.78.01-9.75,5.8-7.68,11.2l99.64,259.58c2.71,7.06,12.71,7.05,15.4-.03Z"/><path class="cls-9" d="M591.87,384.72l-91.88.16-91.88.16c-14.92.03-27,11.1-26.98,24.73l11.35,35.52c5.31,14.8,12.14,24.66,27.07,24.63l80.59-.14,80.59-.14c14.92-.03,21.72-9.91,26.98-24.73l11.23-35.56c-.02-13.63-12.14-24.66-27.07-24.63Z"/><path class="cls-4" d="M607.7,439.21c-5.26,14.82-12.05,24.7-26.98,24.73l-80.59.14-80.59.14c-14.92.03-21.76-9.83-27.07-24.63l-10.93-34.19c-.28,1.42-.42,2.88-.42,4.37l11.35,35.52c5.31,14.8,12.14,24.66,27.07,24.63l80.59-.14,80.59-.14c14.92-.03,21.72-9.91,26.98-24.73l11.23-35.56c0-1.49-.15-2.95-.43-4.37l-10.81,34.23Z"/><path class="cls-1" d="M571.66,499.71l-8.89,11.15-13.89-11.08,8.89-11.15c.76-.95.6-2.33-.35-3.08-.95-.76-2.33-.6-3.08.35l-8.89,11.15-5.66-4.51c-.95-.76-2.33-.6-3.08.35s-.6,2.33.35,3.08l5.66,4.51-12.17,15.27-12.18-9.71c-.95-.76-2.33-.6-3.08.35-.76.95-.6,2.33.35,3.08l12.18,9.71-12.17,15.27-5.66-4.51c-.95-.76-2.33-.6-3.08.35-.76.95-.6,2.33.35,3.08l5.66,4.51-7.79,9.78c-.76.95-.6,2.33.35,3.08.95.76,2.33.6,3.08-.35l7.79-9.78,13.89,11.08-7.79,9.78c-.76.95-.6,2.33.35,3.08.95.76,2.33.6,3.08-.35l7.79-9.78,10.12,8.07c.95.76,2.33.6,3.08-.35.76-.95.6-2.33-.35-3.08l-10.12-8.07,12.17-15.27,3.6,2.87c.95.76,2.33.6,3.08-.35.76-.95.6-2.33-.35-3.08l-3.6-2.87,12.17-15.27,1.44,1.15,1.64-4.31-.35-.27.86-1.08,5.02-13.21c-.15.11-.29.24-.42.4ZM532.96,548.26l-13.89-11.08,12.17-15.27,13.89,11.08-12.17,15.27ZM547.86,529.56l-13.89-11.08,12.17-15.27,13.89,11.08-12.17,15.27Z"/><path class="cls-5" d="M407.37,449.1c-1.45,0-2.96-1.8-2.96-5.21v-28.36h3.57c1.24,0,2.83,1.61,2.83,4.33v29.24h-3.43Z"/><path class="cls-5" d="M429.87,431.1c-.57-.88-2.32-1.85-4.1-1.85-3.13,0-4.88,2.29-4.88,6.03,0,4.57,1.75,6.71,4.57,6.71,1.98,0,3.36-.58,4.47-1.51h.07v2.77c0,3.55-2.52,6.42-5.89,6.42-5.62,0-9.62-5.5-9.62-13.87,0-7.64,3.67-14.21,10.19-14.21,2.93,0,5.35,2.77,5.35,6.23v3.26h-.17Z"/><path class="cls-5" d="M442.28,421.62c5.05,0,9.59,5.55,9.59,13.82,0,8.76-3.67,14.4-10.06,14.4-5.28,0-9.59-5.64-9.59-13.52,0-8.85,4.24-14.69,10.06-14.69ZM441.87,428.92c-1.75,0-3.33,2.68-3.33,6.32,0,5.16,1.41,7.39,3.67,7.39,2.02,0,3.33-2.68,3.33-6.37,0-4.82-1.45-7.35-3.67-7.35Z"/><path class="cls-5" d="M470.9,449.1c-2.83,0-3.7-1.36-3.7-5.45v-9.39c0-3.6-.84-5.21-2.99-5.21-1.85,0-2.86,1.8-2.86,5.06v14.98h-2.15c-2.72,0-4.24-1.56-4.24-5.45v-9.39c0-7.69,3.53-12.7,9.42-12.7,6.56,0,9.22,5.01,9.22,12.94v14.59h-2.69Z"/><path class="cls-5" d="M485.77,439.03h-2.76c.37,2.68,1.88,3.94,4.54,3.94,2.96,0,4.81-.68,5.85-1.7h.24v2.14c0,3.41-1.92,6.47-7.2,6.47-6.39,0-9.75-6.23-9.75-13.62,0-8.12,3.8-14.74,9.52-14.74,4.84,0,8.61,3.94,8.61,10.75,0,5.35-2.79,6.76-9.05,6.76ZM486.2,428.43c-2.25,0-3.2,2.09-3.36,4.67h2.49c3.03,0,3.57-.68,3.57-1.85,0-1.36-.84-2.82-2.69-2.82Z"/><path class="cls-5" d="M512.74,431.1c-.57-.88-2.32-1.85-4.1-1.85-3.13,0-4.88,2.29-4.88,6.03,0,4.57,1.75,6.71,4.57,6.71,1.98,0,3.36-.58,4.47-1.51h.07v2.77c0,3.55-2.52,6.42-5.89,6.42-5.62,0-9.62-5.5-9.62-13.87,0-7.64,3.67-14.21,10.19-14.21,2.93,0,5.35,2.77,5.35,6.23v3.26h-.17Z"/><path class="cls-5" d="M526.87,429.26c-.81-.44-1.41-.54-2.25-.54-1.55,0-2.76,1.12-2.76,4.38v16.01h-1.75c-2.76,0-4.44-1.85-4.44-6.32v-11.63c0-5.4,2.52-9.68,6.73-9.68,3.2,0,4.68,1.9,4.68,4.38v3.41h-.2Z"/><path class="cls-5" d="M537.49,439.03h-2.76c.37,2.68,1.88,3.94,4.54,3.94,2.96,0,4.81-.68,5.85-1.7h.24v2.14c0,3.41-1.92,6.47-7.2,6.47-6.39,0-9.75-6.23-9.75-13.62,0-8.12,3.8-14.74,9.52-14.74,4.84,0,8.61,3.94,8.61,10.75,0,5.35-2.79,6.76-9.05,6.76ZM537.93,428.43c-2.25,0-3.2,2.09-3.36,4.67h2.49c3.03,0,3.57-.68,3.57-1.85,0-1.36-.84-2.82-2.69-2.82Z"/><path class="cls-5" d="M557,449.83c-3.57,0-7.9-2.43-7.9-8.51s2.96-8.95,9.69-8.95h.91v-1.12c0-2.19-1.18-2.72-3.7-2.72-3.46,0-4.74,1.17-6.05,2.92h-.17v-3.26c0-3.31,2.39-6.62,7.67-6.62s8.44,3.75,8.44,11.63v4.14c0,9.73-2.15,12.5-8.88,12.5ZM559.83,438.11h-1.28c-2.42,0-3.4.88-3.4,2.68,0,1.7.74,2.58,2.52,2.58,1.14,0,2.15-.83,2.15-3.26v-1.99Z"/><path class="cls-5" d="M595.95,449.1c-3.4,0-4.17-2.09-4.17-5.4v-9.88c0-3.45-.81-4.72-2.66-4.72s-2.39,1.9-2.39,4.57v15.42h-2.22c-2.59,0-3.97-1.22-3.97-5.4v-10.12c0-3.16-.84-4.48-2.52-4.48-1.78,0-2.49,1.31-2.49,4.62v15.37h-2.22c-2.86,0-4.17-1.99-4.17-5.4v-9.39c0-7.78,3.09-12.75,8.98-12.75,2.89,0,5.08,2.58,5.68,4.77.87-2.04,3.13-4.77,5.79-4.77,5.38,0,8.58,4.62,8.58,12.99v14.55h-2.22Z"/><path id="icecream" class="cls-3" d="M591.84,305.53s-2.13,0-5.93.01c6.84-5.4,12.85-17.26,12.82-36.63-.06-35.56-25.15-51.76-35.59-51.74,0,0-6.17.01-15.88.03,6.23-4.06,13.22-14.3,6.38-34.2-9.77-28.41-76.83-81.51-76.83-81.51-5.73.01,3.81,30.72-16.98,62.2-15.07,22.81-28.16,37.69-19.23,53.29.08.14.17.27.28.41-8.26.01-13.38.02-13.38.02-10.44.02-35.47,16.3-35.41,51.87.03,19.52,6.19,31.39,13.11,36.71-15.23,1.66-45.99,19.16-45.93,55.24.05,26.61,13.67,39.9,25.73,42.29,0,0,57.4-.1,114.81-.2,13.96-.02,27.92-.05,41.06-.07-.16,1.18-.25,2.38-.25,3.62.02,11.33,7.3,20.5,16.27,20.48,4.99,0,9.46-2.87,12.43-7.35,1.78.49,3.64.74,5.55.74,10.1-.02,18.74-7.29,22.32-17.59,10.88-.02,17.43-.03,17.43-.03,12.05-2.43,25.63-15.77,25.58-42.38-.07-37.95-34.16-55.22-48.36-55.2Z"/><path class="cls-8" d="M428.63,224.76c-8.77.02-13.49,2.35-13.48,7.46,0,3.58,1.46,5.15,2.47,5.69,2.13,1.13,4.66,1.12,10.18,1.11,5.51,0,9.47-.13,11.88-1.15.76-.32,2.46-2.12,2.45-5.7,0-5.1-3.84-7.43-13.5-7.41Z"/><path class="cls-7" d="M639.93,354.24c-2.21,21.75-14.58,33.87-24.75,38.34-3.59,1.58-9.35,2.81-16.45,3.77-.03.23-.06.45-.09.68-1.11,1.24-12.06,18.16-23.73,18.18-1.91,0-3.77-.25-5.55-.74-2.97,4.49-7.43,7.35-12.42,7.35-8.25.01-14.19-11.81-15.24-21.88-.1.14-.2.32-.28.51.08-.31.17-.62.26-.92-18.88.27-35.49.05-41.88.07-20.4.04-110.13-1.56-119.35-6.59-9.75-5.32-18.44-16.52-20.72-38.26-.24,2.16-.36,4.39-.36,6.71.05,26.61,13.67,39.9,25.73,42.29,0,0,57.4-.1,114.81-.2,13.89-.02,27.78-.05,40.86-.07-.16,1.57-.16,3.14-.16,3.71.02,11.33,7.3,20.5,16.27,20.48,4.99,0,9.46-2.87,12.43-7.35,1.78.49,3.64.75,5.55.74,11.14-.03,18.84-7.26,22.33-17.68,10.95-.02,17.54-.03,17.54-.03,12.05-2.43,25.63-15.77,25.58-42.38,0-2.31-.14-4.55-.38-6.7Z"/><path class="cls-7" d="M541.59,213.92c-23.52,12.99-84.01,7.54-93.67,1.48-11.86-7.44-8.92-13.77-9.4-15.33-1.5,5.76-1.11,11.22,2.07,16.77,5.66,9.89,77,9.55,102.8,2.05,5.51-1.6,15.52-9.32,12.49-27.34-1.91,9.56-5.53,17.52-14.29,22.37Z"/><path class="cls-7" d="M580.36,300.72c-16.43,12.09-70.62,10.44-84.88,10.46-16.03.03-77.23-3.37-86.45-11.47-6.27-5.5-15.22-16.61-16.74-37.5-.13,1.79-.21,3.63-.2,5.53.04,24.94,4.38,35.01,18.94,39.64,10.97,3.49,65.82,6.42,84.46,6.65,15.58.19,68.47-.31,84.44-6.95,15.35-6.39,18.85-14.77,18.8-39.71,0-1.9-.08-3.74-.22-5.53-1.45,20.89-6.45,30.26-18.15,38.87Z"/></g><g id="logo"><path class="cls-3" d="M183.93,804.1c-4.86,0-9.95-6.05-9.95-17.51v-95.38h11.99c4.19,0,9.5,5.4,9.5,14.56v98.32h-11.54Z"/><path class="cls-3" d="M259.6,743.57c-1.92-2.94-7.8-6.22-13.8-6.22-10.52,0-16.4,7.69-16.4,20.29,0,15.38,5.88,22.58,15.38,22.58,6.67,0,11.31-1.96,15.04-5.07h.23v9.33c0,11.94-8.48,21.6-19.79,21.6-18.89,0-32.35-18.49-32.35-46.63,0-25.69,12.33-47.77,34.27-47.77,9.84,0,17.98,9.33,17.98,20.94v10.96h-.57Z"/><path class="cls-3" d="M301.33,711.66c16.97,0,32.24,18.65,32.24,46.46,0,29.45-12.33,48.42-33.82,48.42-17.76,0-32.24-18.98-32.24-45.48,0-29.78,14.25-49.41,33.82-49.41ZM299.98,736.2c-5.88,0-11.2,9-11.2,21.27,0,17.34,4.75,24.87,12.33,24.87,6.79,0,11.2-9,11.2-21.43,0-16.2-4.86-24.7-12.33-24.7Z"/><path class="cls-3" d="M397.59,804.1c-9.5,0-12.44-4.58-12.44-18.32v-31.58c0-12.11-2.83-17.5-10.07-17.5-6.22,0-9.61,6.05-9.61,17.01v50.39h-7.24c-9.16,0-14.25-5.23-14.25-18.32v-31.58c0-25.85,11.88-42.7,31.67-42.7,22.06,0,30.99,16.85,30.99,43.52v49.08h-9.05Z"/><path class="cls-3" d="M447.58,770.23h-9.28c1.24,9,6.33,13.25,15.27,13.25,9.95,0,16.17-2.29,19.68-5.73h.79v7.2c0,11.45-6.45,21.76-24.21,21.76-21.49,0-32.8-20.94-32.8-45.81,0-27.32,12.78-49.57,32.01-49.57,16.29,0,28.96,13.25,28.96,36.16,0,18-9.39,22.74-30.43,22.74ZM449.05,734.57c-7.58,0-10.75,7.03-11.31,15.71h8.37c10.18,0,11.99-2.29,11.99-6.22,0-4.58-2.83-9.49-9.05-9.49Z"/><path class="cls-3" d="M538.29,743.57c-1.92-2.94-7.81-6.22-13.8-6.22-10.52,0-16.4,7.69-16.4,20.29,0,15.38,5.88,22.58,15.38,22.58,6.67,0,11.31-1.96,15.04-5.07h.23v9.33c0,11.94-8.48,21.6-19.79,21.6-18.89,0-32.35-18.49-32.35-46.63,0-25.69,12.33-47.77,34.27-47.77,9.84,0,17.98,9.33,17.98,20.94v10.96h-.57Z"/><path class="cls-3" d="M585.79,737.35c-2.71-1.47-4.75-1.8-7.58-1.8-5.2,0-9.27,3.76-9.27,14.72v53.82h-5.88c-9.27,0-14.93-6.22-14.93-21.27v-39.1c0-18.16,8.48-32.56,22.62-32.56,10.75,0,15.72,6.38,15.72,14.72v11.45h-.68Z"/><path class="cls-3" d="M621.53,770.23h-9.27c1.24,9,6.33,13.25,15.27,13.25,9.95,0,16.17-2.29,19.68-5.73h.79v7.2c0,11.45-6.45,21.76-24.21,21.76-21.49,0-32.8-20.94-32.8-45.81,0-27.32,12.78-49.57,32.01-49.57,16.29,0,28.96,13.25,28.96,36.16,0,18-9.39,22.74-30.43,22.74ZM623,734.57c-7.58,0-10.75,7.03-11.31,15.71h8.37c10.18,0,11.99-2.29,11.99-6.22,0-4.58-2.83-9.49-9.05-9.49Z"/><path class="cls-3" d="M687.13,806.55c-11.99,0-26.58-8.18-26.58-28.63s9.95-30.1,32.58-30.1h3.05v-3.76c0-7.36-3.96-9.16-12.44-9.16-11.65,0-15.95,3.93-20.36,9.82h-.57v-10.96c0-11.12,8.03-22.25,25.79-22.25s28.39,12.6,28.39,39.1v13.91c0,32.72-7.24,42.04-29.86,42.04ZM696.63,767.12h-4.3c-8.14,0-11.42,2.94-11.42,9,0,5.73,2.49,8.67,8.48,8.67,3.85,0,7.24-2.78,7.24-10.96v-6.71Z"/><path class="cls-3" d="M818.11,804.1c-11.42,0-14.03-7.03-14.03-18.16v-33.21c0-11.62-2.71-15.87-8.94-15.87s-8.03,6.38-8.03,15.38v51.86h-7.47c-8.71,0-13.35-4.09-13.35-18.16v-34.03c0-10.63-2.83-15.05-8.48-15.05-6,0-8.37,4.42-8.37,15.54v51.7h-7.47c-9.61,0-14.03-6.71-14.03-18.16v-31.57c0-26.18,10.41-42.86,30.2-42.86,9.73,0,17.08,8.67,19.12,16.03,2.94-6.87,10.52-16.03,19.45-16.03,18.1,0,28.84,15.54,28.84,43.68v48.92h-7.47Z"/></g></g></g></svg>